ffmpeg started on 2016-11-28 at 07:33:19
Report written to "Output/NVENCh264/results/ffmpeg/crowd_run_2160p50llhp13000k.log"
Command line:
Tools/ffmpeg/ffmpeg -benchmark -y -i Input/y4m/crowd_run_2160p50.y4m -c:v h264_nvenc -preset llhp -b:v 13000k -an Output/NVENCh264/encoded/crowd_run_2160p50llhp13000k.mkv
ffmpeg version N-82227-gdb23fde Copyright (c) 2000-2016 the FFmpeg developers
  built with gcc 5.4.0 (Ubuntu 5.4.0-6ubuntu1~16.04.2) 20160609
  configuration: --prefix=/home/jaroslav/ffmpeg_build --pkg-config-flags=--static --extra-cflags=-I/home/jaroslav/ffmpeg_build/include --extra-ldflags=-L/home/jaroslav/ffmpeg_build/lib --bindir=/home/jaroslav/bin --enable-gpl --enable-libass --enable-libfdk-aac --enable-libfreetype --enable-libmp3lame --enable-libopus --enable-libtheora --enable-libvorbis --enable-libvpx --enable-libx264 --enable-libx265 --enable-nvenc --enable-libmfx --enable-libxvid --enable-libgsm --enable-libopencore-amrnb --enable-version3 --enable-nonfree
  libavutil      55. 35.100 / 55. 35.100
  libavcodec     57. 66.101 / 57. 66.101
  libavformat    57. 57.100 / 57. 57.100
  libavdevice    57.  2.100 / 57.  2.100
  libavfilter     6. 66.100 /  6. 66.100
  libswscale      4.  3.100 /  4.  3.100
  libswresample   2.  4.100 /  2.  4.100
  libpostproc    54.  2.100 / 54.  2.100
Input #0, yuv4mpegpipe, from 'Input/y4m/crowd_run_2160p50.y4m':
  Duration: 00:00:10.00, start: 0.000000, bitrate: 4976642 kb/s
    Stream #0:0: Video: rawvideo (I420 / 0x30323449), yuv420p(progressive), 3840x2160, SAR 1:1 DAR 16:9, 50 fps, 50 tbr, 50 tbn, 50 tbc
[h264_nvenc @ 0x3a9b1c0] The variable bitrate rate-control requires the 'qmin' and/or 'qmax' option set.
Output #0, matroska, to 'Output/NVENCh264/encoded/crowd_run_2160p50llhp13000k.mkv':
  Metadata:
    encoder         : Lavf57.57.100
    Stream #0:0: Video: h264 (h264_nvenc) (Main) (H264 / 0x34363248), yuv420p, 3840x2160 [SAR 1:1 DAR 16:9], q=-1--1, 13000 kb/s, 50 fps, 1k tbn, 50 tbc
    Metadata:
      encoder         : Lavc57.66.101 h264_nvenc
    Side data:
      cpb: bitrate max/min/avg: 0/0/13000000 buffer size: 26000000 vbv_delay: -1
Stream mapping:
  Stream #0:0 -> #0:0 (rawvideo (native) -> h264 (h264_nvenc))
Press [q] to stop, [?] for help
frame=   12 fps=0.0 q=0.0 size=       0kB time=00:00:00.00 bitrate=N/A speed=   0x    frame=   27 fps= 26 q=0.0 size=       0kB time=00:00:00.00 bitrate=N/A speed=   0x    frame=   43 fps= 28 q=41.0 size=       1kB time=00:00:00.24 bitrate=  24.8kbits/s speed=0.156x    frame=   61 fps= 30 q=41.0 size=       1kB time=00:00:00.60 bitrate=  10.0kbits/s speed=0.291x    frame=   79 fps= 31 q=42.0 size=       1kB time=00:00:00.96 bitrate=   6.2kbits/s speed=0.371x    frame=   97 fps= 31 q=41.0 size=       1kB time=00:00:01.32 bitrate=   4.5kbits/s speed=0.425x    frame=  114 fps= 32 q=41.0 size=       1kB time=00:00:01.66 bitrate=   3.6kbits/s speed=0.459x    frame=  128 fps= 23 q=41.0 size=       1kB time=00:00:01.94 bitrate=   3.1kbits/s speed=0.35x    frame=  129 fps= 14 q=41.0 size=       1kB time=00:00:01.96 bitrate=   3.1kbits/s speed=0.216x    frame=  130 fps= 12 q=41.0 size=       1kB time=00:00:01.98 bitrate=   3.0kbits/s speed=0.19x    frame=  147 fps= 13 q=41.0 size=       1kB time=00:00:02.32 bitrate=   2.6kbits/s speed=0.212x    frame=  164 fps= 14 q=41.0 size=       1kB time=00:00:02.66 bitrate=   2.2kbits/s speed=0.232x    frame=  181 fps= 15 q=41.0 size=       1kB time=00:00:03.00 bitrate=   2.0kbits/s speed=0.251x    frame=  195 fps= 16 q=42.0 size=    5153kB time=00:00:03.28 bitrate=12866.1kbits/s speed=0.262x    frame=  204 fps= 16 q=41.0 size=    5153kB time=00:00:03.46 bitrate=12197.0kbits/s speed=0.265x    frame=  214 fps= 16 q=42.0 size=    5153kB time=00:00:03.66 bitrate=11530.7kbits/s speed=0.269x    frame=  224 fps= 16 q=41.0 size=    5153kB time=00:00:03.86 bitrate=10933.4kbits/s speed=0.274x    frame=  234 fps= 16 q=41.0 size=    5153kB time=00:00:04.06 bitrate=10394.9kbits/s speed=0.276x    frame=  244 fps= 16 q=41.0 size=    5153kB time=00:00:04.26 bitrate=9907.0kbits/s speed=0.279x    frame=  255 fps= 16 q=42.0 size=    5153kB time=00:00:04.48 bitrate=9420.6kbits/s speed=0.284x    frame=  265 fps= 16 q=41.0 size=    5153kB time=00:00:04.68 bitrate=9018.1kbits/s speed=0.287x    frame=  277 fps= 16 q=42.0 size=    5153kB time=00:00:04.92 bitrate=8578.3kbits/s speed=0.293x    frame=  291 fps= 17 q=42.0 size=    8030kB time=00:00:05.20 bitrate=12647.5kbits/s speed= 0.3x    frame=  309 fps= 17 q=41.0 size=    8030kB time=00:00:05.56 bitrate=11828.7kbits/s speed=0.312x    frame=  327 fps= 18 q=41.0 size=    8030kB time=00:00:05.92 bitrate=11109.5kbits/s speed=0.322x    frame=  345 fps= 18 q=41.0 size=    8030kB time=00:00:06.28 bitrate=10472.8kbits/s speed=0.332x    frame=  363 fps= 19 q=41.0 size=    8030kB time=00:00:06.64 bitrate=9905.1kbits/s speed=0.342x    frame=  381 fps= 19 q=42.0 size=    8030kB time=00:00:07.00 bitrate=9395.7kbits/s speed=0.351x    frame=  399 fps= 20 q=42.0 size=    8030kB time=00:00:07.36 bitrate=8936.2kbits/s speed=0.36x    frame=  417 fps= 20 q=42.0 size=    8030kB time=00:00:07.72 bitrate=8519.6kbits/s speed=0.368x    frame=  435 fps= 20 q=42.0 size=    8030kB time=00:00:08.08 bitrate=8140.0kbits/s speed=0.376x    frame=  452 fps= 21 q=42.0 size=   13173kB time=00:00:08.42 bitrate=12814.7kbits/s speed=0.383x    frame=  470 fps= 21 q=42.0 size=   13173kB time=00:00:08.78 bitrate=12289.3kbits/s speed=0.39x    frame=  488 fps= 21 q=42.0 size=   13173kB time=00:00:09.14 bitrate=11805.3kbits/s speed=0.397x    frame=  499 fps= 21 q=41.0 size=   13173kB time=00:00:09.36 bitrate=11527.9kbits/s speed=0.398x    frame=  500 fps= 21 q=41.0 Lsize=   15937kB time=00:00:09.98 bitrate=13080.8kbits/s speed=0.423x    
video:15933kB audio:0kB subtitle:0kB other streams:0kB global headers:0kB muxing overhead: 0.029893%
bench: utime=1.180s
bench: maxrss=1421024kB
